<svg width="182" height="225" viewBox="0 0 182 225" fill="none" xmlns="http://www.w3.org/2000/svg">
<path d="M81.5 173.5V114.5C73.1302 110.597 69.5468 106.81 65 97.5V87.5L66 84L40 58L35.5 59.5H26C11.1266 55.4302 6.0825 49.2011 0.5 34V23.5C4.26561 8.22097 10.5806 4.7264 23.5 0.5H38C49.3312 4.88903 54.5707 9.0288 59.5 23V32.5L57 42L82.5 66.5C89.1412 64.9571 93.1537 64.9823 100.5 66.5L126 41L122.5 34V22C126.394 8.91353 131.63 4.61891 144.5 0.5H158C172.539 5.0644 178.019 10.319 181.5 26V32.5C177.221 46.5866 172.991 54.5642 154.5 59.5H147.5L142 58L116.5 84L117.5 87.5V97.5C113.694 107.059 110.231 111.179 102.5 114.5V173.5C112.743 178.418 116.58 183.078 119.5 195V202.5C115.523 217.741 109.65 222.109 95 224.5H89C75.439 221.429 70.4135 216.791 65.5 204V194C67.5648 182.044 72.548 178.494 81.5 173.5Z" fill="#397DFF" stroke="#397DFF"/>
</svg>
