<svg width="632" height="210" viewBox="0 0 632 210" fill="none" xmlns="http://www.w3.org/2000/svg">
<path d="M476.5 209V11.5H513.5V129.5H515L581 65H625.5V66.5L558 131.5V133.5L631 207V208.5H585.5L515 137.5H513.5L514 209H476.5Z" fill="white" stroke="white"/>
<path d="M290 209.5V69.9997C290.601 67.2392 291.439 66.3449 293.5 65.4997H321C324.067 70.5766 324.65 76.398 325.5 85.9997H329C332.842 79.1347 336.896 76.0784 344.5 69.9995C358.605 62.9838 369 61 390.5 61.9997C419.5 67.4995 432.478 77.5314 444 109.5L445.183 209.5H407.5L407 123.5C403.372 101.698 396.74 96.2814 381.283 90.9997H357.5C338.183 96.3319 332.845 104.105 329.5 123L330 209.5H290Z" fill="white" stroke="white"/>
<path d="M216 208.5H178.5L179 149L176 143.5V141L245.5 65.5H279L216 142.5V208.5Z" fill="white" stroke="white"/>
<path d="M208 85C198.667 94 179.9 112 179.5 112H177V105.5C169.67 100.249 165.52 95.934 159 87.5V74L133 48H115C106.707 44.7428 102.946 41.3686 98.5 31.5V17C101.196 9.82969 103.971 6.41212 113.5 2.5H132C142.175 6.5761 146.139 10.1188 149 19.5V30L147.5 35.5L171.5 59L174 60L175.5 58.5C181.943 56.5267 185.052 56.6992 191.5 58.5L195 60.5L219.5 35V16.5C223.904 8.64812 227.375 5.13948 236.5 1.5H254C262.588 5.13721 266.209 8.81856 270 19V30.5C267.434 38.5976 263.389 42.4196 253.5 48.5H234.5L208 74V85Z" fill="#1B8BFD" stroke="#1B8BFD"/>
<path d="M0.5 209.5V0.5H37.8245V179H145L137.5 209.5H0.5Z" fill="white" stroke="white"/>
</svg>
